# Blender v2.93.4 OBJ File: ''
# www.blender.org
mtllib Mate.mtl
o Cube_Cube.001
v -0.557365 0.032639 0.557365
v -0.557365 0.032639 -0.557365
v 0.557365 0.032639 0.557365
v 0.557365 0.032639 -0.557365
v -0.679504 0.031045 -0.000000
v -0.824152 0.837464 0.824152
v -0.824152 0.837464 -0.824152
v 0.000000 0.031045 -0.679504
v 0.824152 0.837464 -0.824152
v 0.679504 0.031045 0.000000
v 0.824152 0.837464 0.824152
v -0.000000 0.031045 0.679504
v -1.135035 0.837464 0.000000
v 0.000000 0.837464 -1.135035
v 1.135035 0.837464 0.000000
v -0.000000 0.837464 1.135035
v -0.410553 1.809792 -0.105466
v -0.715698 1.896858 0.715698
v -0.715698 1.896858 -0.715698
v 0.715698 1.896858 -0.715698
v 0.715698 1.896858 0.715698
v -0.985671 1.896858 0.000000
v 0.000000 1.896858 -0.985671
v 0.985671 1.896858 0.000000
v -0.000000 1.896858 0.985671
v -0.340316 1.809787 -0.077197
v -0.628662 2.040276 0.617268
v -0.628662 2.040276 -0.617268
v 0.605874 2.040276 -0.617268
v 0.605874 2.040276 0.617268
v -0.861505 2.040276 -0.000000
v -0.011394 2.040276 -0.850111
v 0.838717 2.040276 -0.000000
v -0.011394 2.040276 0.850111
v -0.340316 1.809800 0.073784
v -0.313627 1.809791 -0.001707
v -0.507432 1.809810 -0.001841
v -0.480790 1.809801 -0.077197
v -0.410411 1.809810 0.101995
v -0.478234 1.808989 0.071403
v -0.000125 1.813416 0.731457
v -0.467751 1.807358 0.572050
v -0.667538 1.813416 0.000000
v -0.484735 1.813416 -0.590175
v -0.000125 1.813416 -0.731457
v 0.484485 1.813416 -0.590175
v 0.667288 1.813416 0.000000
v 0.484485 1.813416 0.590175
v -0.950727 2.427936 0.071996
v -1.012941 2.402228 0.040293
v -1.038697 2.391313 -0.033433
v -1.012030 2.399729 -0.108308
v -0.945844 2.424608 -0.135381
v -0.881026 2.450380 -0.105940
v -0.857961 2.461196 -0.030031
v -0.884676 2.452765 0.044978
v -1.832570 2.854239 -0.049825
v -1.859935 2.845795 -0.088644
v -1.870663 2.847865 -0.164459
v -1.857442 2.859737 -0.235036
v -1.827116 2.874432 -0.253680
v -1.798293 2.883616 -0.216774
v -1.789061 2.880796 -0.139133
v -1.802305 2.868903 -0.068431
v 0.006109 1.832419 0.940158
v -0.649927 1.832419 0.657699
v 0.629916 1.829672 -0.654423
v 0.903634 1.826807 0.000000
v -0.026120 1.829672 -0.936882
v -0.903370 1.826807 0.000000
v 0.662145 1.832419 0.657699
v -0.682156 1.829672 -0.654423
v -0.681296 1.547891 0.681296
v 0.938291 1.547891 0.000000
v -0.938291 1.547891 0.000000
v -0.000000 1.547891 0.938291
v 0.681296 1.547891 -0.681296
v 0.000000 1.547891 -0.938291
v 0.681296 1.547891 0.681296
v -0.681296 1.547891 -0.681296
v -0.752168 0.435101 0.782956
v -0.702066 0.435101 -0.704238
v 0.777830 0.435101 -0.737526
v 0.714990 0.435101 0.732545
v -1.020589 0.434205 -0.001034
v 0.001043 0.434205 -1.000899
v 1.020589 0.434205 0.001034
v 0.001989 0.434205 1.009850
v -0.775495 1.192677 0.775495
v 1.068023 1.192678 0.000000
v -1.068023 1.192678 0.000000
v -0.000000 1.192678 1.068023
v 0.775495 1.192677 -0.775495
v 0.000000 1.192678 -1.068023
v 0.775495 1.192677 0.775495
v -0.775495 1.192677 -0.775495
vt 0.500000 1.000000
vt 0.500000 0.875000
vt 0.500000 0.875000
vt 0.500000 1.000000
vt 0.500000 0.625000
vt 0.500000 0.500000
vt 0.500000 0.500000
vt 0.500000 0.625000
vt 0.500000 0.375000
vt 0.500000 0.375000
vt 0.500000 0.125000
vt 0.500000 0.000000
vt 0.500000 0.000000
vt 0.500000 0.125000
vt 0.500000 0.750000
vt 0.500000 0.750000
vt 0.500000 0.250000
vt 0.500000 0.250000
vt 0.500000 0.875000
vt 0.500000 1.000000
vt 0.500000 0.625000
vt 0.500000 0.750000
vt 0.500000 0.375000
vt 0.500000 0.500000
vt 0.500000 0.125000
vt 0.500000 0.250000
vt 0.500000 0.000000
vt 0.500000 0.875000
vt 0.500000 1.000000
vt 0.500000 0.000000
vt 0.500000 0.125000
vt 0.500000 0.250000
vt 0.500000 0.375000
vt 0.500000 0.500000
vt 0.500000 0.625000
vt 0.500000 0.750000
vt 0.000000 0.000000
vt 0.000000 0.000000
vt 0.000000 0.000000
vt 0.000000 0.000000
vt 0.000000 0.000000
vt 0.000000 0.000000
vt 0.000000 0.000000
vt 0.000000 0.000000
vt 0.000000 0.000000
vt 0.000000 0.000000
vt 0.000000 0.000000
vt 0.000000 0.000000
vt 0.000000 0.000000
vt 0.000000 0.000000
vt 0.000000 0.000000
vt 0.000000 0.000000
vt 0.000000 0.000000
vt 0.000000 0.000000
vt 0.000000 0.000000
vt 0.000000 0.000000
vt 0.000000 0.000000
vt 0.000000 0.000000
vt 0.000000 0.000000
vt 0.000000 0.000000
vt 0.500000 0.250000
vt 0.500000 0.125000
vt 0.500000 0.375000
vt 0.500000 0.750000
vt 0.500000 0.625000
vt 0.500000 0.875000
vt 0.500000 0.000000
vt 0.500000 0.500000
vt 0.500000 1.000000
vt 0.437500 0.000000
vt 0.500000 0.000000
vt 0.500000 0.125000
vt 0.437500 0.125000
vt 0.500000 0.250000
vt 0.437500 0.250000
vt 0.500000 0.375000
vt 0.437500 0.375000
vt 0.500000 0.500000
vt 0.437500 0.500000
vt 0.500000 0.625000
vt 0.437500 0.625000
vt 0.500000 0.750000
vt 0.437500 0.750000
vt 0.500000 0.875000
vt 0.437500 0.875000
vt 0.500000 1.000000
vt 0.437500 1.000000
vt 0.375000 0.250000
vt 0.375000 0.375000
vt 0.375000 0.500000
vt 0.375000 0.625000
vt 0.375000 0.750000
vt 0.375000 0.875000
vt 0.375000 1.000000
vt 0.375000 0.125000
vt 0.500000 1.000000
vt 0.500000 0.875000
vt 0.500000 0.625000
vt 0.500000 0.500000
vt 0.500000 0.375000
vt 0.500000 0.125000
vt 0.500000 0.000000
vt 0.500000 0.750000
vt 0.500000 0.250000
vt 0.375000 0.000000
vt 0.884200 -1.317172
vt 1.758623 -0.604863
vt 1.758623 0.976265
vt 1.033448 2.280564
vt -0.014576 2.258998
vt -0.888999 1.546688
vt -0.888999 -0.034440
vt -0.141352 -1.281741
vn -0.2704 -0.6900 0.6714
vn 0.5658 -0.7929 -0.2262
vn 0.2550 -0.7309 -0.6331
vn -0.6024 -0.7635 0.2327
vn 0.2801 -0.6617 0.6955
vn 0.6308 -0.7386 0.2379
vn -0.2945 -0.6152 -0.7313
vn -0.6835 -0.6870 -0.2465
vn -0.2681 0.6504 0.7107
vn 0.6754 0.6920 0.2548
vn 0.2607 0.6740 -0.6912
vn -0.7270 0.6294 -0.2743
vn 0.2607 0.6740 0.6912
vn 0.6754 0.6920 -0.2548
vn -0.2681 0.6504 -0.7107
vn -0.7270 0.6294 0.2743
vn 0.3066 0.4194 -0.8545
vn 0.7493 0.6049 -0.2695
vn 0.2970 0.3826 0.8748
vn -0.8001 0.5328 0.2754
vn -0.3003 0.3570 -0.8845
vn 0.7660 0.5862 0.2637
vn -0.3003 0.3570 0.8845
vn -0.8001 0.5328 -0.2754
vn 0.3400 0.2490 -0.9069
vn -0.4859 -0.8575 0.1693
vn 0.3090 0.3077 0.8999
vn -0.3064 -0.3167 -0.8977
vn -0.3673 -0.2813 0.8865
vn 0.7255 0.6231 0.2923
vn -0.7022 -0.6522 -0.2857
vn 0.7398 0.6087 -0.2866
vn -0.7123 -0.6299 0.3096
vn 0.3550 0.5216 -0.7758
vn 0.1558 0.5600 0.8137
vn -0.1683 -0.5413 -0.8238
vn -0.3817 -0.5431 0.7479
vn 0.3780 0.8971 0.2288
vn -0.4367 -0.8668 -0.2407
vn 0.4284 0.8932 -0.1366
vn -0.9390 0.0731 -0.3360
vn -0.3739 0.0286 -0.9270
vn 0.9323 0.1035 0.3466
vn 0.3737 0.0439 0.9265
vn -0.9274 0.1239 0.3530
vn 0.3723 0.0975 -0.9230
vn 0.9177 0.1583 -0.3643
vn -0.3734 0.0599 0.9257
vn -0.9157 -0.2292 0.3300
vn -0.8785 -0.3114 -0.3622
vn -0.3491 -0.3299 -0.8771
vn 0.3255 -0.2669 -0.9071
vn 0.9197 -0.2190 -0.3259
vn 0.8905 -0.2869 0.3531
vn 0.3426 -0.2864 0.8948
vn -0.3148 -0.2196 0.9234
vn -0.0000 -1.0000 0.0000
vn -0.3340 0.3234 0.8854
vn 0.8854 0.3234 -0.3340
vn 0.3340 0.3234 -0.8854
vn -0.8854 0.3234 0.3340
vn 0.3340 0.3234 0.8854
vn 0.8854 0.3234 0.3340
vn -0.3340 0.3234 -0.8854
vn -0.8854 0.3234 -0.3340
vn -0.2089 -0.5888 0.7808
vn 0.2516 -0.5497 0.7966
vn 0.7931 -0.5488 0.2643
vn 0.7767 -0.5903 -0.2198
vn 0.2311 -0.5592 -0.7962
vn -0.2704 -0.5194 -0.8106
vn -0.7985 -0.5329 -0.2802
vn -0.7801 -0.5825 0.2282
vn -0.9214 0.1738 -0.3476
vn -0.3476 0.1738 -0.9214
vn 0.9214 0.1738 0.3476
vn 0.3476 0.1738 0.9214
vn -0.9214 0.1738 0.3476
vn 0.3476 0.1738 -0.9214
vn 0.9214 0.1738 -0.3476
vn -0.3476 0.1738 0.9214
vn -0.0015 1.0000 0.0014
g Cube_Cube.001_Material.001
usemtl Material.001
s off
f 66/1/1 65/2/1 25/3/1 18/4/1
f 68/5/2 67/6/2 20/7/2 24/8/2
f 67/6/3 69/9/3 23/10/3 20/7/3
f 70/11/4 66/12/4 18/13/4 22/14/4
f 65/2/5 71/15/5 21/16/5 25/3/5
f 71/15/6 68/5/6 24/8/6 21/16/6
f 69/9/7 72/17/7 19/18/7 23/10/7
f 72/17/8 70/11/8 22/14/8 19/18/8
f 18/4/9 25/3/9 34/19/9 27/20/9
f 21/16/10 24/8/10 33/21/10 30/22/10
f 20/7/11 23/10/11 32/23/11 29/24/11
f 19/18/12 22/14/12 31/25/12 28/26/12
f 25/3/13 21/16/13 30/22/13 34/19/13
f 24/8/14 20/7/14 29/24/14 33/21/14
f 23/10/15 19/18/15 28/26/15 32/23/15
f 22/14/16 18/13/16 27/27/16 31/25/16
f 27/20/17 34/19/17 41/28/17 42/29/17
f 31/25/18 27/27/18 42/30/18 43/31/18
f 32/23/19 28/26/19 44/32/19 45/33/19
f 33/21/20 29/24/20 46/34/20 47/35/20
f 34/19/21 30/22/21 48/36/21 41/28/21
f 28/26/22 31/25/22 43/31/22 44/32/22
f 29/24/23 32/23/23 45/33/23 46/34/23
f 30/22/24 33/21/24 47/35/24 48/36/24
f 26/37/25 17/38/25 53/39/25 54/40/25
f 51/41/26 50/42/26 58/43/26 59/44/26
f 39/45/27 35/46/27 56/47/27 49/48/27
f 17/38/28 38/49/28 52/50/28 53/39/28
f 40/51/29 39/45/29 49/48/29 50/42/29
f 35/46/30 36/52/30 55/53/30 56/47/30
f 38/49/31 37/54/31 51/41/31 52/50/31
f 36/52/32 26/37/32 54/40/32 55/53/32
f 37/54/33 40/51/33 50/42/33 51/41/33
f 54/40/34 53/39/34 61/55/34 62/56/34
f 49/48/35 56/47/35 64/57/35 57/58/35
f 53/39/36 52/50/36 60/59/36 61/55/36
f 50/42/37 49/48/37 57/58/37 58/43/37
f 56/47/38 55/53/38 63/60/38 64/57/38
f 52/50/39 51/41/39 59/44/39 60/59/39
f 55/53/40 54/40/40 62/56/40 63/60/40
f 80/61/41 75/62/41 70/11/41 72/17/41
f 78/63/42 80/61/42 72/17/42 69/9/42
f 79/64/43 74/65/43 68/5/43 71/15/43
f 76/66/44 79/64/44 71/15/44 65/2/44
f 75/62/45 73/67/45 66/12/45 70/11/45
f 77/68/46 78/63/46 69/9/46 67/6/46
f 74/65/47 77/68/47 67/6/47 68/5/47
f 73/69/48 76/66/48 65/2/48 66/1/48
g Cube_Cube.001_Material.002
usemtl Material.002
f 81/70/49 6/71/49 13/72/49 85/73/49
f 85/73/50 13/72/50 7/74/50 82/75/50
f 82/75/51 7/74/51 14/76/51 86/77/51
f 86/77/52 14/76/52 9/78/52 83/79/52
f 83/79/53 9/78/53 15/80/53 87/81/53
f 87/81/54 15/80/54 11/82/54 84/83/54
f 84/83/55 11/82/55 16/84/55 88/85/55
f 88/85/56 16/84/56 6/86/56 81/87/56
f 2/88/57 8/89/57 4/90/57 10/91/57 3/92/57 12/93/57 1/94/57 5/95/57
f 89/96/58 92/97/58 76/66/58 73/69/58
f 90/98/59 93/99/59 77/68/59 74/65/59
f 93/99/60 94/100/60 78/63/60 77/68/60
f 91/101/61 89/102/61 73/67/61 75/62/61
f 92/97/62 95/103/62 79/64/62 76/66/62
f 95/103/63 90/98/63 74/65/63 79/64/63
f 94/100/64 96/104/64 80/61/64 78/63/64
f 96/104/65 91/101/65 75/62/65 80/61/65
f 12/93/66 88/85/66 81/87/66 1/94/66
f 3/92/67 84/83/67 88/85/67 12/93/67
f 10/91/68 87/81/68 84/83/68 3/92/68
f 4/90/69 83/79/69 87/81/69 10/91/69
f 8/89/70 86/77/70 83/79/70 4/90/70
f 2/88/71 82/75/71 86/77/71 8/89/71
f 5/95/72 85/73/72 82/75/72 2/88/72
f 1/105/73 81/70/73 85/73/73 5/95/73
f 7/74/74 13/72/74 91/101/74 96/104/74
f 14/76/75 7/74/75 96/104/75 94/100/75
f 11/82/76 15/80/76 90/98/76 95/103/76
f 16/84/77 11/82/77 95/103/77 92/97/77
f 13/72/78 6/71/78 89/102/78 91/101/78
f 9/78/79 14/76/79 94/100/79 93/99/79
f 15/80/80 9/78/80 93/99/80 90/98/80
f 6/86/81 16/84/81 92/97/81 89/96/81
g Cube_Cube.001_Material.003
usemtl Material.003
f 41/106/82 48/107/82 47/108/82 46/109/82 45/110/82 44/111/82 43/112/82 42/113/82
